<mxfile host="app.diagrams.net" modified="2024-01-04T08:49:27.187Z" agent="Mozilla/5.0 (Windows NT 10.0; Win64; x64) AppleWebKit/537.36 (KHTML, like Gecko) Chrome/119.0.0.0 Safari/537.36" etag="s5GJ-2UamA5IdSoosyWS" version="22.1.16" type="github">
  <diagram name="第 1 页" id="e5nT0eJJbsJMDa9VYoj3">
    <mxGraphModel dx="1050" dy="557" grid="1" gridSize="10" guides="1" tooltips="1" connect="1" arrows="1" fold="1" page="1" pageScale="1" pageWidth="827" pageHeight="1169" math="0" shadow="0">
      <root>
        <mxCell id="0" />
        <mxCell id="1" parent="0" />
        <mxCell id="2lriUHaFM1LSnirkUohK-13" value="" style="rounded=0;whiteSpace=wrap;html=1;" vertex="1" parent="1">
          <mxGeometry x="280" y="190" width="330" height="110" as="geometry" />
        </mxCell>
        <mxCell id="2lriUHaFM1LSnirkUohK-1" value="脾" style="ellipse;whiteSpace=wrap;html=1;fontSize=14;" vertex="1" parent="1">
          <mxGeometry x="460" y="220" width="100" height="50" as="geometry" />
        </mxCell>
        <mxCell id="2lriUHaFM1LSnirkUohK-2" value="胃" style="ellipse;whiteSpace=wrap;html=1;fontSize=14;" vertex="1" parent="1">
          <mxGeometry x="340" y="220" width="100" height="50" as="geometry" />
        </mxCell>
        <mxCell id="2lriUHaFM1LSnirkUohK-8" value="" style="shape=flexArrow;endArrow=classic;html=1;rounded=0;exitX=0.5;exitY=0;exitDx=0;exitDy=0;" edge="1" parent="1" source="2lriUHaFM1LSnirkUohK-1">
          <mxGeometry width="50" height="50" relative="1" as="geometry">
            <mxPoint x="509.5" y="210" as="sourcePoint" />
            <mxPoint x="470" y="120" as="targetPoint" />
            <Array as="points">
              <mxPoint x="530" y="190" />
            </Array>
          </mxGeometry>
        </mxCell>
        <mxCell id="2lriUHaFM1LSnirkUohK-10" value="升清" style="edgeLabel;html=1;align=center;verticalAlign=middle;resizable=0;points=[];fontSize=15;" vertex="1" connectable="0" parent="2lriUHaFM1LSnirkUohK-8">
          <mxGeometry x="-0.1685" y="-1" relative="1" as="geometry">
            <mxPoint as="offset" />
          </mxGeometry>
        </mxCell>
        <mxCell id="2lriUHaFM1LSnirkUohK-9" value="" style="shape=flexArrow;endArrow=classic;html=1;rounded=0;exitX=0.5;exitY=1;exitDx=0;exitDy=0;" edge="1" parent="1" source="2lriUHaFM1LSnirkUohK-2">
          <mxGeometry width="50" height="50" relative="1" as="geometry">
            <mxPoint x="360" y="280" as="sourcePoint" />
            <mxPoint x="370" y="400" as="targetPoint" />
            <Array as="points">
              <mxPoint x="350" y="330" />
            </Array>
          </mxGeometry>
        </mxCell>
        <mxCell id="2lriUHaFM1LSnirkUohK-11" value="降浊" style="edgeLabel;html=1;align=center;verticalAlign=middle;resizable=0;points=[];fontSize=15;" vertex="1" connectable="0" parent="2lriUHaFM1LSnirkUohK-9">
          <mxGeometry x="-0.2099" y="1" relative="1" as="geometry">
            <mxPoint as="offset" />
          </mxGeometry>
        </mxCell>
        <mxCell id="2lriUHaFM1LSnirkUohK-12" value="肝" style="ellipse;whiteSpace=wrap;html=1;fontSize=14;" vertex="1" parent="1">
          <mxGeometry x="60" y="220" width="100" height="50" as="geometry" />
        </mxCell>
        <mxCell id="2lriUHaFM1LSnirkUohK-16" value="饮食" style="ellipse;whiteSpace=wrap;html=1;fontSize=14;" vertex="1" parent="1">
          <mxGeometry x="340" y="80" width="100" height="50" as="geometry" />
        </mxCell>
        <mxCell id="2lriUHaFM1LSnirkUohK-18" value="" style="shape=flexArrow;endArrow=classic;html=1;rounded=0;exitX=0.5;exitY=1;exitDx=0;exitDy=0;entryX=0.5;entryY=0;entryDx=0;entryDy=0;" edge="1" parent="1" source="2lriUHaFM1LSnirkUohK-16" target="2lriUHaFM1LSnirkUohK-2">
          <mxGeometry width="50" height="50" relative="1" as="geometry">
            <mxPoint x="390" y="90" as="sourcePoint" />
            <mxPoint x="440" y="40" as="targetPoint" />
          </mxGeometry>
        </mxCell>
        <mxCell id="2lriUHaFM1LSnirkUohK-22" value="" style="endArrow=classic;html=1;rounded=0;entryX=0;entryY=0.5;entryDx=0;entryDy=0;exitX=1;exitY=0.5;exitDx=0;exitDy=0;" edge="1" parent="1" source="2lriUHaFM1LSnirkUohK-12" target="2lriUHaFM1LSnirkUohK-13">
          <mxGeometry width="50" height="50" relative="1" as="geometry">
            <mxPoint x="180" y="250" as="sourcePoint" />
            <mxPoint x="230" y="200" as="targetPoint" />
          </mxGeometry>
        </mxCell>
        <mxCell id="2lriUHaFM1LSnirkUohK-23" value="协调气机升降" style="edgeLabel;html=1;align=center;verticalAlign=middle;resizable=0;points=[];fontSize=15;fontColor=#FF3333;" vertex="1" connectable="0" parent="2lriUHaFM1LSnirkUohK-22">
          <mxGeometry x="-0.144" relative="1" as="geometry">
            <mxPoint as="offset" />
          </mxGeometry>
        </mxCell>
        <mxCell id="2lriUHaFM1LSnirkUohK-24" value="1、胃主受纳，脾主运化&lt;br style=&quot;font-size: 14px;&quot;&gt;2、胃主降浊，脾主升清" style="text;html=1;strokeColor=none;fillColor=none;align=center;verticalAlign=middle;whiteSpace=wrap;rounded=0;fontSize=14;" vertex="1" parent="1">
          <mxGeometry x="510" y="80" width="170" height="40" as="geometry" />
        </mxCell>
      </root>
    </mxGraphModel>
  </diagram>
</mxfile>
